<?xml version="1.0" encoding="UTF-8" standalone="no"?>
<!-- Created with Inkscape (http://www.inkscape.org/) -->

<svg
   xmlns:dc="http://purl.org/dc/elements/1.1/"
   xmlns:cc="http://creativecommons.org/ns#"
   xmlns:rdf="http://www.w3.org/1999/02/22-rdf-syntax-ns#"
   xmlns:svg="http://www.w3.org/2000/svg"
   xmlns="http://www.w3.org/2000/svg"
   xmlns:sodipodi="http://sodipodi.sourceforge.net/DTD/sodipodi-0.dtd"
   xmlns:inkscape="http://www.inkscape.org/namespaces/inkscape"
   id="svg2"
   version="1.1"
   inkscape:version="0.91 r13725"
   xml:space="preserve"
   width="2979.925"
   height="6292.2373"
   viewBox="0 0 2979.925 6292.2373"
   sodipodi:docname="asymmetric_circle_pattern_v02.svg"><metadata
     id="metadata8"><rdf:RDF><cc:Work
         rdf:about=""><dc:format>image/svg+xml</dc:format><dc:type
           rdf:resource="http://purl.org/dc/dcmitype/StillImage" /><dc:title></dc:title></cc:Work></rdf:RDF></metadata><defs
     id="defs6"><clipPath
       clipPathUnits="userSpaceOnUse"
       id="clipPath34"><path
         d="m 0,5033.79 2383.939,0 L 2383.939,0 0,0 0,5033.79 Z"
         id="path36"
         inkscape:connector-curvature="0" /></clipPath><clipPath
       clipPathUnits="userSpaceOnUse"
       id="clipPath50"><path
         d="m 0,5033.79 2383.939,0 L 2383.939,0 0,0 0,5033.79 Z"
         id="path52"
         inkscape:connector-curvature="0" /></clipPath><clipPath
       clipPathUnits="userSpaceOnUse"
       id="clipPath334"><path
         d="m 0,5033.79 2383.939,0 L 2383.939,0 0,0 0,5033.79 Z"
         id="path336"
         inkscape:connector-curvature="0" /></clipPath><clipPath
       clipPathUnits="userSpaceOnUse"
       id="clipPath350"><path
         d="m 0,5033.79 2383.939,0 L 2383.939,0 0,0 0,5033.79 Z"
         id="path352"
         inkscape:connector-curvature="0" /></clipPath></defs><sodipodi:namedview
     pagecolor="#ffffff"
     bordercolor="#666666"
     borderopacity="1"
     objecttolerance="10"
     gridtolerance="10"
     guidetolerance="10"
     inkscape:pageopacity="0"
     inkscape:pageshadow="2"
     inkscape:window-width="1920"
     inkscape:window-height="1063"
     id="namedview4"
     showgrid="false"
     inkscape:zoom="0.21216898"
     inkscape:cx="2102.7413"
     inkscape:cy="1249.1309"
     inkscape:window-x="0"
     inkscape:window-y="17"
     inkscape:window-maximized="1"
     inkscape:current-layer="g48"
     showguides="true"
     inkscape:guide-bbox="true"><sodipodi:guide
       position="1639.7144,268.2866"
       orientation="0,1"
       id="guide4596" /><sodipodi:guide
       position="1488.0741,1319.7701"
       orientation="1,0"
       id="guide4598" /><sodipodi:guide
       position="1873.5066,2282.3788"
       orientation="1,0"
       id="guide4600" /><sodipodi:guide
       position="1738.0014,1872.3283"
       orientation="0,1"
       id="guide4602" /><sodipodi:guide
       position="2441.4501,2208.1456"
       orientation="1,0"
       id="guide4604" /><sodipodi:guide
       position="2087.9583,2441.4502"
       orientation="0,1"
       id="guide4624" /></sodipodi:namedview><g
     id="g10"
     inkscape:groupmode="layer"
     inkscape:label="asymmetric_circle_pattern_v01"
     transform="matrix(1.25,0,0,-1.25,0,6292.2375)"><path
       d="m 1204.725,200.72 -28.347,0 0,28.346 28.347,0 0,-28.346 z"
       style="fill:#1d1d1b;fill-opacity:1;fill-rule:nonzero;stroke:none"
       id="path12"
       inkscape:connector-curvature="0" /><g
       id="g14"
       transform="translate(623.6216,214.8912)"><path
         d="M 0,0 1133.859,0 0,0 Z"
         style="fill:#1d1d1b;fill-opacity:1;fill-rule:nonzero;stroke:none"
         id="path16"
         inkscape:connector-curvature="0" /></g><g
       id="g18"
       transform="translate(623.6221,214.8916)"><path
         d="M 0,0 1083.003,0"
         style="fill:none;stroke:#1d1d1b;stroke-width:14.17300034;stroke-linecap:butt;stroke-linejoin:miter;stroke-miterlimit:4;stroke-dasharray:none;stroke-opacity:1"
         id="path20"
         inkscape:connector-curvature="0" /></g><g
       id="g22"
       transform="matrix(-1,0,0,1,621.91932,183.43264)"><path
         d="M 0,0 61.194,35.328 0,70.664 0,0 Z"
         style="fill:#1d1d1b;fill-opacity:1;fill-rule:nonzero;stroke:none"
         id="path24"
         inkscape:connector-curvature="0" /></g><g
       id="g26"
       transform="translate(1190.5507,20.9293)"><path
         d="M 0,0 0,1133.857 0,0 Z"
         style="fill:#1d1d1b;fill-opacity:1;fill-rule:nonzero;stroke:none"
         id="path28"
         inkscape:connector-curvature="0" /></g><g
       id="g30"><g
         id="g32"
         clip-path="url(#clipPath34)"><g
           id="g38"
           transform="translate(1190.5513,20.9287)"><path
             d="M 0,0 0,1072.831"
             style="fill:none;stroke:#1d1d1b;stroke-width:14.17300034;stroke-linecap:butt;stroke-linejoin:miter;stroke-miterlimit:4;stroke-dasharray:none;stroke-opacity:1"
             id="path40"
             inkscape:connector-curvature="0" /></g></g></g><g
       id="g42"
       transform="translate(1232.7139,1081.3525)"><path
         d="M 0,0 -42.395,73.434 -84.798,0 0,0 Z"
         style="fill:#1d1d1b;fill-opacity:1;fill-rule:nonzero;stroke:none"
         id="path44"
         inkscape:connector-curvature="0" /></g><g
       id="g46"><g
         id="g48"
         clip-path="url(#clipPath50)"><g
           id="g54"
           transform="translate(677.4805,3766.7041)"><path
             d="m 0,0 c 0,-46.968 -38.074,-85.039 -85.039,-85.039 -46.965,0 -85.039,38.071 -85.039,85.039 0,46.965 38.074,85.039 85.039,85.039 C -38.074,85.039 0,46.965 0,0"
             style="fill:#000000;fill-opacity:1;fill-rule:nonzero;stroke:none"
             id="path56"
             inkscape:connector-curvature="0" /></g><g
           id="g58"
           transform="translate(1131.0234,3766.7041)"><path
             d="m 0,0 c 0,-46.968 -38.074,-85.039 -85.039,-85.039 -46.965,0 -85.039,38.071 -85.039,85.039 0,46.965 38.074,85.039 85.039,85.039 C -38.074,85.039 0,46.965 0,0"
             style="fill:#000000;fill-opacity:1;fill-rule:nonzero;stroke:none"
             id="path60"
             inkscape:connector-curvature="0" /></g><g
           id="g62"
           transform="translate(1584.5664,3766.7041)"><path
             d="m 0,0 c 0,-46.968 -38.07,-85.039 -85.039,-85.039 -46.965,0 -85.039,38.071 -85.039,85.039 0,46.965 38.074,85.039 85.039,85.039 C -38.07,85.039 0,46.965 0,0"
             style="fill:#000000;fill-opacity:1;fill-rule:nonzero;stroke:none"
             id="path64"
             inkscape:connector-curvature="0" /></g><g
           id="g66"
           transform="translate(2038.1094,3766.7041)"><path
             d="m 0,0 c 0,-46.968 -38.07,-85.039 -85.039,-85.039 -46.965,0 -85.039,38.071 -85.039,85.039 0,46.965 38.074,85.039 85.039,85.039 C -38.07,85.039 0,46.965 0,0"
             style="fill:#000000;fill-opacity:1;fill-rule:nonzero;stroke:none"
             id="path68"
             inkscape:connector-curvature="0" /></g><g
           id="g70"
           transform="translate(1811.3398,3539.9316)"><path
             d="m 0,0 c 0,-46.966 -38.074,-85.039 -85.039,-85.039 -46.965,0 -85.039,38.073 -85.039,85.039 0,46.965 38.074,85.038 85.039,85.038 C -38.074,85.038 0,46.965 0,0"
             style="fill:#000000;fill-opacity:1;fill-rule:nonzero;stroke:none"
             id="path72"
             inkscape:connector-curvature="0" /></g><g
           id="g74"
           transform="translate(1357.7969,3539.9316)"><path
             d="m 0,0 c 0,-46.966 -38.074,-85.039 -85.039,-85.039 -46.969,0 -85.039,38.073 -85.039,85.039 0,46.965 38.07,85.038 85.039,85.038 C -38.074,85.038 0,46.965 0,0"
             style="fill:#000000;fill-opacity:1;fill-rule:nonzero;stroke:none"
             id="path76"
             inkscape:connector-curvature="0" /></g><g
           id="g78"
           transform="translate(904.2549,3539.9316)"><path
             d="m 0,0 c 0,-46.966 -38.075,-85.039 -85.04,-85.039 -46.969,0 -85.039,38.073 -85.039,85.039 0,46.965 38.07,85.038 85.039,85.038 C -38.075,85.038 0,46.965 0,0"
             style="fill:#000000;fill-opacity:1;fill-rule:nonzero;stroke:none"
             id="path80"
             inkscape:connector-curvature="0" /></g><g
           id="g82"
           transform="translate(450.7119,3539.9316)"><path
             d="m 0,0 c 0,-46.966 -38.075,-85.039 -85.039,-85.039 -46.97,0 -85.043,38.073 -85.043,85.039 0,46.965 38.073,85.038 85.043,85.038 C -38.075,85.038 0,46.965 0,0"
             style="fill:#000000;fill-opacity:1;fill-rule:nonzero;stroke:none"
             id="path84"
             inkscape:connector-curvature="0" /></g><g
           id="g86"
           transform="translate(677.4805,3313.1611)"><path
             d="m 0,0 c 0,-46.968 -38.074,-85.039 -85.039,-85.039 -46.965,0 -85.039,38.071 -85.039,85.039 0,46.965 38.074,85.039 85.039,85.039 C -38.074,85.039 0,46.965 0,0"
             style="fill:#000000;fill-opacity:1;fill-rule:nonzero;stroke:none"
             id="path88"
             inkscape:connector-curvature="0" /></g><g
           id="g90"
           transform="translate(1131.0234,3313.1611)"><path
             d="m 0,0 c 0,-46.968 -38.074,-85.039 -85.039,-85.039 -46.965,0 -85.039,38.071 -85.039,85.039 0,46.965 38.074,85.039 85.039,85.039 C -38.074,85.039 0,46.965 0,0"
             style="fill:#000000;fill-opacity:1;fill-rule:nonzero;stroke:none"
             id="path92"
             inkscape:connector-curvature="0" /></g><g
           id="g94"
           transform="translate(1584.5664,3313.1611)"><path
             d="m 0,0 c 0,-46.968 -38.07,-85.039 -85.039,-85.039 -46.965,0 -85.039,38.071 -85.039,85.039 0,46.965 38.074,85.039 85.039,85.039 C -38.07,85.039 0,46.965 0,0"
             style="fill:#000000;fill-opacity:1;fill-rule:nonzero;stroke:none"
             id="path96"
             inkscape:connector-curvature="0" /></g><g
           id="g98"
           transform="translate(2038.1094,3313.1611)"><path
             d="m 0,0 c 0,-46.968 -38.07,-85.039 -85.039,-85.039 -46.965,0 -85.039,38.071 -85.039,85.039 0,46.965 38.074,85.039 85.039,85.039 C -38.07,85.039 0,46.965 0,0"
             style="fill:#000000;fill-opacity:1;fill-rule:nonzero;stroke:none"
             id="path100"
             inkscape:connector-curvature="0" /></g><g
           id="g102"
           transform="translate(1811.3398,3086.3877)"><path
             d="m 0,0 c 0,-46.965 -38.074,-85.038 -85.039,-85.038 -46.965,0 -85.039,38.073 -85.039,85.038 0,46.966 38.074,85.039 85.039,85.039 C -38.074,85.039 0,46.966 0,0"
             style="fill:#000000;fill-opacity:1;fill-rule:nonzero;stroke:none"
             id="path104"
             inkscape:connector-curvature="0" /></g><g
           id="g106"
           transform="translate(1357.7969,3086.3877)"><path
             d="m 0,0 c 0,-46.965 -38.074,-85.038 -85.039,-85.038 -46.969,0 -85.039,38.073 -85.039,85.038 0,46.966 38.07,85.039 85.039,85.039 C -38.074,85.039 0,46.966 0,0"
             style="fill:#000000;fill-opacity:1;fill-rule:nonzero;stroke:none"
             id="path108"
             inkscape:connector-curvature="0" /></g><g
           id="g110"
           transform="translate(904.2549,3086.3877)"><path
             d="m 0,0 c 0,-46.965 -38.075,-85.038 -85.04,-85.038 -46.969,0 -85.039,38.073 -85.039,85.038 0,46.966 38.07,85.039 85.039,85.039 C -38.075,85.039 0,46.966 0,0"
             style="fill:#000000;fill-opacity:1;fill-rule:nonzero;stroke:none"
             id="path112"
             inkscape:connector-curvature="0" /></g><g
           id="g114"
           transform="translate(450.7119,3086.3877)"><path
             d="m 0,0 c 0,-46.965 -38.075,-85.038 -85.039,-85.038 -46.97,0 -85.043,38.073 -85.043,85.038 0,46.966 38.073,85.039 85.043,85.039 C -38.075,85.039 0,46.966 0,0"
             style="fill:#000000;fill-opacity:1;fill-rule:nonzero;stroke:none"
             id="path116"
             inkscape:connector-curvature="0" /></g><g
           id="g118"
           transform="translate(677.4805,2859.6182)"><path
             d="m 0,0 c 0,-46.968 -38.074,-85.043 -85.039,-85.043 -46.965,0 -85.039,38.075 -85.039,85.043 0,46.965 38.074,85.039 85.039,85.039 C -38.074,85.039 0,46.965 0,0"
             style="fill:#000000;fill-opacity:1;fill-rule:nonzero;stroke:none"
             id="path120"
             inkscape:connector-curvature="0" /></g><g
           id="g122"
           transform="translate(1131.0234,2859.6182)"><path
             d="m 0,0 c 0,-46.968 -38.074,-85.043 -85.039,-85.043 -46.965,0 -85.039,38.075 -85.039,85.043 0,46.965 38.074,85.039 85.039,85.039 C -38.074,85.039 0,46.965 0,0"
             style="fill:#000000;fill-opacity:1;fill-rule:nonzero;stroke:none"
             id="path124"
             inkscape:connector-curvature="0" /></g><g
           id="g126"
           transform="translate(1584.5664,2859.6182)"><path
             d="m 0,0 c 0,-46.968 -38.07,-85.043 -85.039,-85.043 -46.965,0 -85.039,38.075 -85.039,85.043 0,46.965 38.074,85.039 85.039,85.039 C -38.07,85.039 0,46.965 0,0"
             style="fill:#000000;fill-opacity:1;fill-rule:nonzero;stroke:none"
             id="path128"
             inkscape:connector-curvature="0" /></g><g
           id="g130"
           transform="translate(2038.1094,2859.6182)"><path
             d="m 0,0 c 0,-46.968 -38.07,-85.043 -85.039,-85.043 -46.965,0 -85.039,38.075 -85.039,85.043 0,46.965 38.074,85.039 85.039,85.039 C -38.07,85.039 0,46.965 0,0"
             style="fill:#000000;fill-opacity:1;fill-rule:nonzero;stroke:none"
             id="path132"
             inkscape:connector-curvature="0" /></g><g
           id="g134"
           transform="translate(1811.3398,2632.8447)"><path
             d="m 0,0 c 0,-46.965 -38.074,-85.039 -85.039,-85.039 -46.965,0 -85.039,38.074 -85.039,85.039 0,46.966 38.074,85.039 85.039,85.039 C -38.074,85.039 0,46.966 0,0"
             style="fill:#000000;fill-opacity:1;fill-rule:nonzero;stroke:none"
             id="path136"
             inkscape:connector-curvature="0" /></g><g
           id="g138"
           transform="translate(1357.7969,2632.8447)"><path
             d="m 0,0 c 0,-46.965 -38.074,-85.039 -85.039,-85.039 -46.969,0 -85.039,38.074 -85.039,85.039 0,46.966 38.07,85.039 85.039,85.039 C -38.074,85.039 0,46.966 0,0"
             style="fill:#000000;fill-opacity:1;fill-rule:nonzero;stroke:none"
             id="path140"
             inkscape:connector-curvature="0" /></g><g
           id="g142"
           transform="translate(904.2549,2632.8447)"><path
             d="m 0,0 c 0,-46.965 -38.075,-85.039 -85.04,-85.039 -46.969,0 -85.039,38.074 -85.039,85.039 0,46.966 38.07,85.039 85.039,85.039 C -38.075,85.039 0,46.966 0,0"
             style="fill:#000000;fill-opacity:1;fill-rule:nonzero;stroke:none"
             id="path144"
             inkscape:connector-curvature="0" /></g><g
           id="g146"
           transform="translate(450.7119,2632.8447)"><path
             d="m 0,0 c 0,-46.965 -38.075,-85.039 -85.039,-85.039 -46.97,0 -85.043,38.074 -85.043,85.039 0,46.966 38.073,85.039 85.043,85.039 C -38.075,85.039 0,46.966 0,0"
             style="fill:#000000;fill-opacity:1;fill-rule:nonzero;stroke:none"
             id="path148"
             inkscape:connector-curvature="0" /></g><g
           id="g150"
           transform="translate(677.4805,2406.0713)"><path
             d="m 0,0 c 0,-46.964 -38.074,-85.039 -85.039,-85.039 -46.965,0 -85.039,38.075 -85.039,85.039 0,46.969 38.074,85.043 85.039,85.043 C -38.074,85.043 0,46.969 0,0"
             style="fill:#000000;fill-opacity:1;fill-rule:nonzero;stroke:none"
             id="path152"
             inkscape:connector-curvature="0" /></g><g
           id="g154"
           transform="translate(1131.0234,2406.0713)"><path
             d="m 0,0 c 0,-46.964 -38.074,-85.039 -85.039,-85.039 -46.965,0 -85.039,38.075 -85.039,85.039 0,46.969 38.074,85.043 85.039,85.043 C -38.074,85.043 0,46.969 0,0"
             style="fill:#000000;fill-opacity:1;fill-rule:nonzero;stroke:none"
             id="path156"
             inkscape:connector-curvature="0" /></g><g
           id="g158"
           transform="translate(1584.5664,2406.0713)"><path
             d="m 0,0 c 0,-46.964 -38.07,-85.039 -85.039,-85.039 -46.965,0 -85.039,38.075 -85.039,85.039 0,46.969 38.074,85.043 85.039,85.043 C -38.07,85.043 0,46.969 0,0"
             style="fill:#000000;fill-opacity:1;fill-rule:nonzero;stroke:none"
             id="path160"
             inkscape:connector-curvature="0" /></g><g
           id="g162"
           transform="translate(2038.1094,2406.0713)"><path
             d="m 0,0 c 0,-46.964 -38.07,-85.039 -85.039,-85.039 -46.965,0 -85.039,38.075 -85.039,85.039 0,46.969 38.074,85.043 85.039,85.043 C -38.07,85.043 0,46.969 0,0"
             style="fill:#000000;fill-opacity:1;fill-rule:nonzero;stroke:none"
             id="path164"
             inkscape:connector-curvature="0" /></g><g
           id="g166"
           transform="translate(1811.3398,2179.3018)"><path
             d="m 0,0 c 0,-46.965 -38.074,-85.039 -85.039,-85.039 -46.965,0 -85.039,38.074 -85.039,85.039 0,46.966 38.074,85.039 85.039,85.039 C -38.074,85.039 0,46.966 0,0"
             style="fill:#000000;fill-opacity:1;fill-rule:nonzero;stroke:none"
             id="path168"
             inkscape:connector-curvature="0" /></g><g
           id="g170"
           transform="translate(1357.7969,2179.3018)"><path
             d="m 0,0 c 0,-46.965 -38.074,-85.039 -85.039,-85.039 -46.969,0 -85.039,38.074 -85.039,85.039 0,46.966 38.07,85.039 85.039,85.039 C -38.074,85.039 0,46.966 0,0"
             style="fill:#000000;fill-opacity:1;fill-rule:nonzero;stroke:none"
             id="path172"
             inkscape:connector-curvature="0" /></g><g
           id="g174"
           transform="translate(904.2549,2179.3018)"><path
             d="m 0,0 c 0,-46.965 -38.075,-85.039 -85.04,-85.039 -46.969,0 -85.039,38.074 -85.039,85.039 0,46.966 38.07,85.039 85.039,85.039 C -38.075,85.039 0,46.966 0,0"
             style="fill:#000000;fill-opacity:1;fill-rule:nonzero;stroke:none"
             id="path176"
             inkscape:connector-curvature="0" /></g><g
           id="g178"
           transform="translate(450.7119,2179.3018)"><path
             d="m 0,0 c 0,-46.965 -38.075,-85.039 -85.039,-85.039 -46.97,0 -85.043,38.074 -85.043,85.039 0,46.966 38.073,85.039 85.043,85.039 C -38.075,85.039 0,46.966 0,0"
             style="fill:#000000;fill-opacity:1;fill-rule:nonzero;stroke:none"
             id="path180"
             inkscape:connector-curvature="0" /></g><g
           id="g182"
           transform="translate(677.4805,1952.5293)"><path
             d="m 0,0 c 0,-46.965 -38.074,-85.04 -85.039,-85.04 -46.965,0 -85.039,38.075 -85.039,85.04 0,46.968 38.074,85.039 85.039,85.039 C -38.074,85.039 0,46.968 0,0"
             style="fill:#000000;fill-opacity:1;fill-rule:nonzero;stroke:none"
             id="path184"
             inkscape:connector-curvature="0" /></g><g
           id="g186"
           transform="translate(1131.0234,1952.5293)"><path
             d="m 0,0 c 0,-46.965 -38.074,-85.04 -85.039,-85.04 -46.965,0 -85.039,38.075 -85.039,85.04 0,46.968 38.074,85.039 85.039,85.039 C -38.074,85.039 0,46.968 0,0"
             style="fill:#000000;fill-opacity:1;fill-rule:nonzero;stroke:none"
             id="path188"
             inkscape:connector-curvature="0" /></g><g
           id="g190"
           transform="translate(1584.5664,1952.5293)"><path
             d="m 0,0 c 0,-46.965 -38.07,-85.04 -85.039,-85.04 -46.965,0 -85.039,38.075 -85.039,85.04 0,46.968 38.074,85.039 85.039,85.039 C -38.07,85.039 0,46.968 0,0"
             style="fill:#000000;fill-opacity:1;fill-rule:nonzero;stroke:none"
             id="path192"
             inkscape:connector-curvature="0" /></g><g
           id="g194"
           transform="translate(2038.1094,1952.5293)"><path
             d="m 0,0 c 0,-46.965 -38.07,-85.04 -85.039,-85.04 -46.965,0 -85.039,38.075 -85.039,85.04 0,46.968 38.074,85.039 85.039,85.039 C -38.07,85.039 0,46.968 0,0"
             style="fill:#000000;fill-opacity:1;fill-rule:nonzero;stroke:none"
             id="path196"
             inkscape:connector-curvature="0" /></g><g
           id="g198"
           transform="translate(1811.3398,1725.7588)"><path
             d="m 0,0 c 0,-46.965 -38.074,-85.039 -85.039,-85.039 -46.965,0 -85.039,38.074 -85.039,85.039 0,46.965 38.074,85.039 85.039,85.039 C -38.074,85.039 0,46.965 0,0"
             style="fill:#000000;fill-opacity:1;fill-rule:nonzero;stroke:none"
             id="path200"
             inkscape:connector-curvature="0" /></g><g
           id="g202"
           transform="translate(1357.7969,1725.7588)"><path
             d="m 0,0 c 0,-46.965 -38.074,-85.039 -85.039,-85.039 -46.969,0 -85.039,38.074 -85.039,85.039 0,46.965 38.07,85.039 85.039,85.039 C -38.074,85.039 0,46.965 0,0"
             style="fill:#000000;fill-opacity:1;fill-rule:nonzero;stroke:none"
             id="path204"
             inkscape:connector-curvature="0" /></g><g
           id="g206"
           transform="translate(904.2549,1725.7588)"><path
             d="m 0,0 c 0,-46.965 -38.075,-85.039 -85.04,-85.039 -46.969,0 -85.039,38.074 -85.039,85.039 0,46.965 38.07,85.039 85.039,85.039 C -38.075,85.039 0,46.965 0,0"
             style="fill:#000000;fill-opacity:1;fill-rule:nonzero;stroke:none"
             id="path208"
             inkscape:connector-curvature="0" /></g><g
           id="g210"
           transform="translate(450.7119,1725.7588)"><path
             d="m 0,0 c 0,-46.965 -38.075,-85.039 -85.039,-85.039 -46.97,0 -85.043,38.074 -85.043,85.039 0,46.965 38.073,85.039 85.043,85.039 C -38.075,85.039 0,46.965 0,0"
             style="fill:#000000;fill-opacity:1;fill-rule:nonzero;stroke:none"
             id="path212"
             inkscape:connector-curvature="0" /></g><g
           id="g214"
           transform="translate(677.4805,1952.5293)"><path
             d="m 0,0 c 0,-46.965 -38.074,-85.04 -85.039,-85.04 -46.965,0 -85.039,38.075 -85.039,85.04 0,46.968 38.074,85.039 85.039,85.039 C -38.074,85.039 0,46.968 0,0"
             style="fill:#000000;fill-opacity:1;fill-rule:nonzero;stroke:none"
             id="path216"
             inkscape:connector-curvature="0" /></g><g
           id="g218"
           transform="translate(1131.0234,1952.5293)"><path
             d="m 0,0 c 0,-46.965 -38.074,-85.04 -85.039,-85.04 -46.965,0 -85.039,38.075 -85.039,85.04 0,46.968 38.074,85.039 85.039,85.039 C -38.074,85.039 0,46.968 0,0"
             style="fill:#000000;fill-opacity:1;fill-rule:nonzero;stroke:none"
             id="path220"
             inkscape:connector-curvature="0" /></g><g
           id="g222"
           transform="translate(1584.5664,1952.5293)"><path
             d="m 0,0 c 0,-46.965 -38.07,-85.04 -85.039,-85.04 -46.965,0 -85.039,38.075 -85.039,85.04 0,46.968 38.074,85.039 85.039,85.039 C -38.07,85.039 0,46.968 0,0"
             style="fill:#000000;fill-opacity:1;fill-rule:nonzero;stroke:none"
             id="path224"
             inkscape:connector-curvature="0" /></g><g
           id="g226"
           transform="translate(2038.1094,1952.5293)"><path
             d="m 0,0 c 0,-46.965 -38.07,-85.04 -85.039,-85.04 -46.965,0 -85.039,38.075 -85.039,85.04 0,46.968 38.074,85.039 85.039,85.039 C -38.07,85.039 0,46.968 0,0"
             style="fill:#000000;fill-opacity:1;fill-rule:nonzero;stroke:none"
             id="path228"
             inkscape:connector-curvature="0" /></g><g
           id="g230"
           transform="translate(677.4805,1498.9863)"><path
             d="m 0,0 c 0,-46.965 -38.074,-85.04 -85.039,-85.04 -46.965,0 -85.039,38.075 -85.039,85.04 0,46.968 38.074,85.039 85.039,85.039 C -38.074,85.039 0,46.968 0,0"
             style="fill:#000000;fill-opacity:1;fill-rule:nonzero;stroke:none"
             id="path232"
             inkscape:connector-curvature="0" /></g><g
           id="g234"
           transform="translate(1131.0234,1498.9863)"><path
             d="m 0,0 c 0,-46.965 -38.074,-85.04 -85.039,-85.04 -46.965,0 -85.039,38.075 -85.039,85.04 0,46.968 38.074,85.039 85.039,85.039 C -38.074,85.039 0,46.968 0,0"
             style="fill:#000000;fill-opacity:1;fill-rule:nonzero;stroke:none"
             id="path236"
             inkscape:connector-curvature="0" /></g><g
           id="g238"
           transform="translate(1584.5664,1498.9863)"><path
             d="m 0,0 c 0,-46.965 -38.07,-85.04 -85.039,-85.04 -46.965,0 -85.039,38.075 -85.039,85.04 0,46.968 38.074,85.039 85.039,85.039 C -38.07,85.039 0,46.968 0,0"
             style="fill:#000000;fill-opacity:1;fill-rule:nonzero;stroke:none"
             id="path240"
             inkscape:connector-curvature="0" /></g><g
           id="g242"
           transform="translate(2038.1094,1498.9863)"><path
             d="m 0,0 c 0,-46.965 -38.07,-85.04 -85.039,-85.04 -46.965,0 -85.039,38.075 -85.039,85.04 0,46.968 38.074,85.039 85.039,85.039 C -38.07,85.039 0,46.968 0,0"
             style="fill:#000000;fill-opacity:1;fill-rule:nonzero;stroke:none"
             id="path244"
             inkscape:connector-curvature="0" /></g><g
           id="g246"
           transform="translate(677.4805,1498.9863)"><path
             d="m 0,0 c 0,-46.965 -38.074,-85.04 -85.039,-85.04 -46.965,0 -85.039,38.075 -85.039,85.04 0,46.968 38.074,85.039 85.039,85.039 C -38.074,85.039 0,46.968 0,0"
             style="fill:#000000;fill-opacity:1;fill-rule:nonzero;stroke:none"
             id="path248"
             inkscape:connector-curvature="0" /></g><g
           id="g250"
           transform="translate(1131.0234,1498.9863)"><path
             d="m 0,0 c 0,-46.965 -38.074,-85.04 -85.039,-85.04 -46.965,0 -85.039,38.075 -85.039,85.04 0,46.968 38.074,85.039 85.039,85.039 C -38.074,85.039 0,46.968 0,0"
             style="fill:#000000;fill-opacity:1;fill-rule:nonzero;stroke:none"
             id="path252"
             inkscape:connector-curvature="0" /></g><g
           id="g254"
           transform="translate(1584.5664,1498.9863)"><path
             d="m 0,0 c 0,-46.965 -38.07,-85.04 -85.039,-85.04 -46.965,0 -85.039,38.075 -85.039,85.04 0,46.968 38.074,85.039 85.039,85.039 C -38.07,85.039 0,46.968 0,0"
             style="fill:#000000;fill-opacity:1;fill-rule:nonzero;stroke:none"
             id="path256"
             inkscape:connector-curvature="0" /></g><g
           id="g258"
           transform="translate(2038.1094,1498.9863)"><path
             d="m 0,0 c 0,-46.965 -38.07,-85.04 -85.039,-85.04 -46.965,0 -85.039,38.075 -85.039,85.04 0,46.968 38.074,85.039 85.039,85.039 C -38.07,85.039 0,46.968 0,0"
             style="fill:#000000;fill-opacity:1;fill-rule:nonzero;stroke:none"
             id="path260"
             inkscape:connector-curvature="0" /></g><g
           id="g262"
           transform="translate(677.4805,4673.7891)"><path
             d="m 0,0 c 0,-46.968 -38.074,-85.039 -85.039,-85.039 -46.965,0 -85.039,38.071 -85.039,85.039 0,46.965 38.074,85.039 85.039,85.039 C -38.074,85.039 0,46.965 0,0"
             style="fill:#000000;fill-opacity:1;fill-rule:nonzero;stroke:none"
             id="path264"
             inkscape:connector-curvature="0" /></g><g
           id="g266"
           transform="translate(1131.0234,4673.7891)"><path
             d="m 0,0 c 0,-46.968 -38.074,-85.039 -85.039,-85.039 -46.965,0 -85.039,38.071 -85.039,85.039 0,46.965 38.074,85.039 85.039,85.039 C -38.074,85.039 0,46.965 0,0"
             style="fill:#000000;fill-opacity:1;fill-rule:nonzero;stroke:none"
             id="path268"
             inkscape:connector-curvature="0" /></g><g
           id="g270"
           transform="translate(1584.5674,4673.7891)"><path
             d="m 0,0 c 0,-46.968 -38.07,-85.039 -85.039,-85.039 -46.965,0 -85.039,38.071 -85.039,85.039 0,46.965 38.074,85.039 85.039,85.039 C -38.07,85.039 0,46.965 0,0"
             style="fill:#000000;fill-opacity:1;fill-rule:nonzero;stroke:none"
             id="path272"
             inkscape:connector-curvature="0" /></g><g
           id="g274"
           transform="translate(2038.1104,4673.7891)"><path
             d="m 0,0 c 0,-46.968 -38.07,-85.039 -85.039,-85.039 -46.965,0 -85.039,38.071 -85.039,85.039 0,46.965 38.074,85.039 85.039,85.039 C -38.07,85.039 0,46.965 0,0"
             style="fill:#000000;fill-opacity:1;fill-rule:nonzero;stroke:none"
             id="path276"
             inkscape:connector-curvature="0" /></g><g
           id="g278"
           transform="translate(1811.3408,4447.0166)"><path
             d="m 0,0 c 0,-46.966 -38.074,-85.039 -85.039,-85.039 -46.965,0 -85.039,38.073 -85.039,85.039 0,46.965 38.074,85.038 85.039,85.038 C -38.074,85.038 0,46.965 0,0"
             style="fill:#000000;fill-opacity:1;fill-rule:nonzero;stroke:none"
             id="path280"
             inkscape:connector-curvature="0" /></g><g
           id="g282"
           transform="translate(1357.7979,4447.0166)"><path
             d="m 0,0 c 0,-46.966 -38.074,-85.039 -85.039,-85.039 -46.969,0 -85.04,38.073 -85.04,85.039 0,46.965 38.071,85.038 85.04,85.038 C -38.074,85.038 0,46.965 0,0"
             style="fill:#000000;fill-opacity:1;fill-rule:nonzero;stroke:none"
             id="path284"
             inkscape:connector-curvature="0" /></g><g
           id="g286"
           transform="translate(904.2549,4447.0166)"><path
             d="m 0,0 c 0,-46.966 -38.075,-85.039 -85.04,-85.039 -46.969,0 -85.039,38.073 -85.039,85.039 0,46.965 38.07,85.038 85.039,85.038 C -38.075,85.038 0,46.965 0,0"
             style="fill:#000000;fill-opacity:1;fill-rule:nonzero;stroke:none"
             id="path288"
             inkscape:connector-curvature="0" /></g><g
           id="g290"
           transform="translate(450.7119,4447.0166)"><path
             d="m 0,0 c 0,-46.966 -38.075,-85.039 -85.039,-85.039 -46.97,0 -85.043,38.073 -85.043,85.039 0,46.965 38.073,85.038 85.043,85.038 C -38.075,85.038 0,46.965 0,0"
             style="fill:#000000;fill-opacity:1;fill-rule:nonzero;stroke:none"
             id="path292"
             inkscape:connector-curvature="0" /></g><g
           id="g294"
           transform="translate(677.4805,4220.2461)"><path
             d="m 0,0 c 0,-46.968 -38.074,-85.039 -85.039,-85.039 -46.965,0 -85.039,38.071 -85.039,85.039 0,46.965 38.074,85.039 85.039,85.039 C -38.074,85.039 0,46.965 0,0"
             style="fill:#000000;fill-opacity:1;fill-rule:nonzero;stroke:none"
             id="path296"
             inkscape:connector-curvature="0" /></g><g
           id="g298"
           transform="translate(1131.0234,4220.2461)"><path
             d="m 0,0 c 0,-46.968 -38.074,-85.039 -85.039,-85.039 -46.965,0 -85.039,38.071 -85.039,85.039 0,46.965 38.074,85.039 85.039,85.039 C -38.074,85.039 0,46.965 0,0"
             style="fill:#000000;fill-opacity:1;fill-rule:nonzero;stroke:none"
             id="path300"
             inkscape:connector-curvature="0" /></g><g
           id="g302"
           transform="translate(1584.5674,4220.2461)"><path
             d="m 0,0 c 0,-46.968 -38.07,-85.039 -85.039,-85.039 -46.965,0 -85.039,38.071 -85.039,85.039 0,46.965 38.074,85.039 85.039,85.039 C -38.07,85.039 0,46.965 0,0"
             style="fill:#000000;fill-opacity:1;fill-rule:nonzero;stroke:none"
             id="path304"
             inkscape:connector-curvature="0" /></g><g
           id="g306"
           transform="translate(2038.1104,4220.2461)"><path
             d="m 0,0 c 0,-46.968 -38.07,-85.039 -85.039,-85.039 -46.965,0 -85.039,38.071 -85.039,85.039 0,46.965 38.074,85.039 85.039,85.039 C -38.07,85.039 0,46.965 0,0"
             style="fill:#000000;fill-opacity:1;fill-rule:nonzero;stroke:none"
             id="path308"
             inkscape:connector-curvature="0" /></g><g
           id="g310"
           transform="translate(1811.3408,3993.4727)"><path
             d="m 0,0 c 0,-46.965 -38.074,-85.038 -85.039,-85.038 -46.965,0 -85.039,38.073 -85.039,85.038 0,46.966 38.074,85.039 85.039,85.039 C -38.074,85.039 0,46.966 0,0"
             style="fill:#000000;fill-opacity:1;fill-rule:nonzero;stroke:none"
             id="path312"
             inkscape:connector-curvature="0" /></g><g
           id="g314"
           transform="translate(1357.7979,3993.4727)"><path
             d="m 0,0 c 0,-46.965 -38.074,-85.038 -85.039,-85.038 -46.969,0 -85.04,38.073 -85.04,85.038 0,46.966 38.071,85.039 85.04,85.039 C -38.074,85.039 0,46.966 0,0"
             style="fill:#000000;fill-opacity:1;fill-rule:nonzero;stroke:none"
             id="path316"
             inkscape:connector-curvature="0" /></g><g
           id="g318"
           transform="translate(904.2549,3993.4727)"><path
             d="m 0,0 c 0,-46.965 -38.075,-85.038 -85.04,-85.038 -46.969,0 -85.039,38.073 -85.039,85.038 0,46.966 38.07,85.039 85.039,85.039 C -38.075,85.039 0,46.966 0,0"
             style="fill:#000000;fill-opacity:1;fill-rule:nonzero;stroke:none"
             id="path320"
             inkscape:connector-curvature="0" /></g><g
           id="g322"
           transform="translate(450.7119,3993.4727)"><path
             d="m 0,0 c 0,-46.965 -38.075,-85.038 -85.039,-85.038 -46.97,0 -85.043,38.073 -85.043,85.038 0,46.966 38.073,85.039 85.043,85.039 C -38.075,85.039 0,46.966 0,0"
             style="fill:#000000;fill-opacity:1;fill-rule:nonzero;stroke:none"
             id="path324"
             inkscape:connector-curvature="0" /></g><text
           xml:space="preserve"
           style="font-style:normal;font-variant:normal;font-weight:normal;font-stretch:normal;font-size:36px;font-family:Roboto;-inkscape-font-specification:Roboto;text-align:center;text-anchor:middle;opacity:1;fill:#000000;fill-opacity:1;fill-rule:evenodd;stroke:none;stroke-width:0;stroke-miterlimit:100;stroke-dasharray:none;stroke-opacity:1"
           x="1951.3268"
           y="-1372.4277"
           id="text4592"
           transform="scale(1,-1)"><tspan
             sodipodi:role="line"
             id="tspan4594"
             x="1951.3268"
             y="-1372.4277"
             style="font-size:20px">(x=0.453, y=-0.269)</tspan></text>
<text
           xml:space="preserve"
           style="font-style:normal;font-variant:normal;font-weight:normal;font-stretch:normal;font-size:36px;font-family:Roboto;-inkscape-font-specification:Roboto;text-align:center;text-anchor:middle;opacity:1;fill:#000000;fill-opacity:1;fill-rule:evenodd;stroke:none;stroke-width:0;stroke-miterlimit:100;stroke-dasharray:none;stroke-opacity:1"
           x="1500.7491"
           y="-1385.6165"
           id="text4592-7"
           transform="scale(1,-1)"><tspan
             sodipodi:role="line"
             id="tspan4594-5"
             x="1500.7491"
             y="-1385.6165"
             style="font-size:20px">(x=0.453, y=-0.109)</tspan></text>
<text
           xml:space="preserve"
           style="font-style:normal;font-variant:normal;font-weight:normal;font-stretch:normal;font-size:36px;font-family:Roboto;-inkscape-font-specification:Roboto;text-align:center;text-anchor:middle;opacity:1;fill:#000000;fill-opacity:1;fill-rule:evenodd;stroke:none;stroke-width:0;stroke-miterlimit:100;stroke-dasharray:none;stroke-opacity:1"
           x="1968.301"
           y="-1843.7418"
           id="text4592-3"
           transform="scale(1,-1)"><tspan
             sodipodi:role="line"
             id="tspan4594-56"
             x="1968.301"
             y="-1843.7418"
             style="font-size:20px">(x=0.613, y=-0.269)</tspan></text>
</g></g><text
       transform="matrix(1,0,0,-1,617.9575,130.4668)"
       style="font-variant:normal;font-weight:normal;font-stretch:normal;font-size:48px;font-family:Roboto;-inkscape-font-specification:Roboto-Regular;writing-mode:lr-tb;fill:#000000;fill-opacity:1;fill-rule:nonzero;stroke:none"
       id="text326"><tspan
         x="0 34.223999 61.487999 103.44 130.70399 157.968 174.43201 200.832 228.09599 255.36 267.45599 292.84799 304.79999 335.18399 361.58401 373.67999 385.776 398.92801 441.07199 467.47198 484.07999 500.68799"
         y="0"
         sodipodi:role="line"
         id="tspan328">Homographie Cali-Matte</tspan></text>
<g
       id="g330"><g
         id="g332"
         clip-path="url(#clipPath334)"><g
           id="g338"
           transform="translate(1403.1191,134.8896)"><path
             d="M 0,0 283.465,0"
             style="fill:none;stroke:#1d1d1b;stroke-width:8;stroke-linecap:butt;stroke-linejoin:miter;stroke-miterlimit:4;stroke-dasharray:none;stroke-opacity:1"
             id="path340"
             inkscape:connector-curvature="0" /></g></g></g><text
       transform="matrix(1,0,0,-1,1402.8398,147.8984)"
       style="font-variant:normal;font-weight:normal;font-stretch:normal;font-size:21px;font-family:Roboto;-inkscape-font-specification:Roboto-Regular;writing-mode:lr-tb;fill:#000000;fill-opacity:1;fill-rule:nonzero;stroke:none"
       id="text342"><tspan
         x="0 11.823 23.646 34.797001"
         y="0"
         sodipodi:role="line"
         id="tspan344">10cm</tspan></text>
<g
       id="g346"><g
         id="g348"
         clip-path="url(#clipPath350)"><g
           id="g354"
           transform="translate(927.0342,723.9932)"><path
             d="m 0,0 c 17.681,-45.129 68.802,-84.461 124.531,-102.18 -18.03,-13.978 -58.739,-3.386 -83.021,-3.193 36.041,-34.207 79.245,-61.252 137.304,-73.441 -90.77,0.769 -159.755,50.984 -194.78,118.144 9.352,8.274 18.99,-15.305 31.932,-22.351 C 35.249,-93.523 60.987,-93.885 83.021,-98.986 11.843,-61.6 -47.52,-12.398 -44.704,98.986 -27.541,42.707 2.672,-0.523 60.669,-15.967 -30.565,35.654 1.4,224.465 79.828,271.414 74.533,238.232 52.536,211.646 47.896,182.008 31.544,77.551 97.938,15.391 191.587,9.578 101.007,4.152 42.63,58.592 28.738,140.496 5.395,64.211 40.447,-6.873 98.986,-22.352 61.346,-32.293 20.571,-17.768 0,0"
             style="fill:#000000;fill-opacity:1;fill-rule:evenodd;stroke:none"
             id="path356"
             inkscape:connector-curvature="0" /></g><g
           id="g358"
           transform="translate(1204.835,621.8135)"><path
             d="M 0,0 C 23.044,-70.002 62.047,-153.002 166.041,-121.338 77.364,-158.701 -9.393,-101.318 0,0"
             style="fill:#000000;fill-opacity:1;fill-rule:evenodd;stroke:none"
             id="path360"
             inkscape:connector-curvature="0" /></g><g
           id="g362"
           transform="translate(1179.29,602.6553)"><path
             d="M 0,0 C 32.442,-109.857 -37.473,-217.725 -146.883,-175.621 -41.37,-197.313 -1.055,-103.547 0,0"
             style="fill:#000000;fill-opacity:1;fill-rule:evenodd;stroke:none"
             id="path364"
             inkscape:connector-curvature="0" /></g><g
           id="g366"
           transform="translate(1198.4482,589.8818)"><path
             d="M 0,0 C 16.977,-95.85 29.543,-196.102 114.952,-223.518 25.916,-212.498 -8.594,-119.293 0,0"
             style="fill:#000000;fill-opacity:1;fill-rule:evenodd;stroke:none"
             id="path368"
             inkscape:connector-curvature="0" /></g><g
           id="g370"
           transform="translate(1390.0352,992.2139)"><path
             d="m 0,0 c 57.467,-35.697 91.937,-193.08 25.545,-255.449 44.03,17.707 93.386,30.08 95.794,89.408 15.631,-87.119 -45.232,-152.615 -108.567,-182.008 31.826,-9.439 71.939,0.412 83.022,22.352 -24.979,-69.756 -100.945,-116.18 -194.78,-127.725 62.153,18.738 118.987,42.799 153.269,89.408 -28.354,-2.439 -52.163,8.151 -76.635,0 45.83,29.743 92.887,58.252 111.759,114.951 -28.832,-2.058 -68.683,-20.705 -95.793,-35.125 29.879,35.831 58.945,86.87 47.897,153.27 -29.35,-57.928 -105.648,-68.906 -137.304,-124.531 7.97,58.144 113.929,83.246 124.531,153.269 C 34.444,-64.492 16.384,-31.432 0,0"
             style="fill:#000000;fill-opacity:1;fill-rule:evenodd;stroke:none"
             id="path372"
             inkscape:connector-curvature="0" /></g><g
           id="g374"
           transform="translate(1105.8486,816.5928)"><path
             d="m 0,0 c 65.559,31.67 111.516,-22.525 162.849,-35.123 -3.369,-12.602 -33.429,-11.932 -44.704,-6.387 0.988,4.334 7.995,2.651 12.772,3.194 C 109.37,-24.74 88.571,-10.414 57.476,-6.387 95.051,-45.336 30.371,-121.238 54.282,-175.621 12.049,-138.988 102.426,-3.195 0,0"
             style="fill:#000000;fill-opacity:1;fill-rule:evenodd;stroke:none"
             id="path376"
             inkscape:connector-curvature="0" /></g><g
           id="g378"
           transform="translate(1223.9932,727.1865)"><path
             d="M 0,0 C 23.116,-14.389 19.396,-73.711 0,-89.408 6.748,-72.535 8.002,-27.641 0,0"
             style="fill:#000000;fill-opacity:1;fill-rule:evenodd;stroke:none"
             id="path380"
             inkscape:connector-curvature="0" /></g></g></g><text
       transform="matrix(1,0,0,-1,745.9097,262.1396)"
       style="font-variant:normal;font-weight:bold;font-stretch:normal;font-size:72px;font-family:Roboto;-inkscape-font-specification:Roboto-Bold;writing-mode:lr-tb;fill:#000000;fill-opacity:1;fill-rule:nonzero;stroke:none"
       id="text382"><tspan
         x="0 41.112 90.575996 90.575996 90.575996 153.43201 200.304 240.912 281.51999 319.608 360.216 379.44 416.23199 470.01599 517.60797 558.216 598.82397 639.43201 664.56 683.784 721.08002 758.23199"
         y="0"
         sodipodi:role="line"
         id="tspan384">TUM  Phoenix Robotics </tspan></text>
<text
       transform="matrix(1,0,0,-1,1785.8252,195.8838)"
       style="font-variant:normal;font-weight:900;font-stretch:normal;font-size:72px;font-family:'Roboto Black';-inkscape-font-specification:Roboto-Black;writing-mode:lr-tb;fill:#000000;fill-opacity:1;fill-rule:nonzero;stroke:none"
       id="text394"><tspan
         x="-526.96802"
         y="-891"
         id="tspan398">x</tspan></text>
<text
       xml:space="preserve"
       style="font-style:normal;font-variant:normal;font-weight:normal;font-stretch:normal;font-size:12px;font-family:Arial;-inkscape-font-specification:Arial;text-align:center;text-anchor:middle;opacity:1;fill:#00c7ff;fill-opacity:1;fill-rule:evenodd;stroke:none;stroke-width:0;stroke-miterlimit:100;stroke-dasharray:none;stroke-opacity:1"
       x="1278.2264"
       y="-133.38446"
       id="text4532"
       transform="scale(1,-1)"><tspan
         sodipodi:role="line"
         id="tspan4534"
         x="1278.2264"
         y="-133.38446"
         style="font-style:normal;font-variant:normal;font-weight:normal;font-stretch:normal;font-size:36px;font-family:Roboto;-inkscape-font-specification:Roboto;fill:#000000;fill-opacity:1">V2.0</tspan></text>
<text
       y="623.18066"
       x="1068.3916"
       style="font-variant:normal;font-weight:900;font-stretch:normal;font-size:72px;font-family:'Roboto Black';-inkscape-font-specification:Roboto-Black;writing-mode:lr-tb;fill:#000000;fill-opacity:1;fill-rule:nonzero;stroke:none"
       id="text394-3"
       transform="scale(1,-1)"><tspan
         x="541.42358"
         y="-267.81934"
         id="tspan398-6">y</tspan></text>
</g></svg>